HIERARCHY
ROOT Hips
{
	OFFSET 0.000000 0.000000 0.000000
	CHANNELS 6 Xposition Yposition Zposition Zrotation Yrotation Xrotation 
	JOINT LHipJoint
	{
		OFFSET 0.000000 0.000000 0.000000
		CHANNELS 3 Zrotation Yrotation Xrotation
		JOINT LeftUpLeg
		{
			OFFSET 1.363060 -1.794630 0.839290
			CHANNELS 3 Zrotation Yrotation Xrotation
			JOINT LeftLeg
			{
				OFFSET 2.448110 -6.726130 0.000000
				CHANNELS 3 Zrotation Yrotation Xrotation
				JOINT LeftFoot
				{
					OFFSET 2.562200 -7.039590 0.000000
					CHANNELS 3 Zrotation Yrotation Xrotation
					JOINT LeftToeBase
					{
						OFFSET 0.157640 -0.433110 2.322550
						CHANNELS 3 Zrotation Yrotation Xrotation
						End Site
						{
							OFFSET 0.000000 0.000000 0.000000
						}
					}
				}
			}
		}
	}
	JOINT RHipJoint
	{
		OFFSET 0.000000 0.000000 0.000000
		CHANNELS 3 Zrotation Yrotation Xrotation
		JOINT RightUpLeg
		{
			OFFSET -1.305520 -1.794630 0.839290
			CHANNELS 3 Zrotation Yrotation Xrotation
			JOINT RightLeg
			{
				OFFSET -2.542530 -6.985550 0.000000
				CHANNELS 3 Zrotation Yrotation Xrotation
				JOINT RightFoot
				{
					OFFSET -2.568260 -7.056230 0.000000
					CHANNELS 3 Zrotation Yrotation Xrotation
					JOINT RightToeBase
					{
						OFFSET -0.164730 -0.452590 2.363150
						CHANNELS 3 Zrotation Yrotation Xrotation
						End Site
						{
							OFFSET 0.000000 0.000000 0.000000
						}
					}
				}
			}
		}
	}
	JOINT LowerBack
	{
		OFFSET 0.000000 0.000000 0.000000
		CHANNELS 3 Zrotation Yrotation Xrotation
		JOINT Spine
		{
			OFFSET 0.028270 2.035590 -0.193380
			CHANNELS 3 Zrotation Yrotation Xrotation
			JOINT Spine1
			{
				OFFSET 0.056720 2.048850 -0.042750
				CHANNELS 3 Zrotation Yrotation Xrotation
				JOINT Neck
				{
					OFFSET 0.000000 0.000000 0.000000
					CHANNELS 3 Zrotation Yrotation Xrotation
					JOINT Neck1
					{
						OFFSET -0.054170 1.746240 0.172020
						CHANNELS 3 Zrotation Yrotation Xrotation
						JOINT Head
						{
							OFFSET 0.104070 1.761360 -0.123970
							CHANNELS 3 Zrotation Yrotation Xrotation
							End Site
							{
								OFFSET 0.000000 0.000000 0.000000
							}
						}
					}
				}
				JOINT LeftShoulder
				{
					OFFSET 0.000000 0.000000 0.000000
					CHANNELS 3 Zrotation Yrotation Xrotation
					JOINT LeftArm
					{
						OFFSET 3.362410 1.200890 -0.311210
						CHANNELS 3 Zrotation Yrotation Xrotation
						JOINT LeftForeArm
						{
							OFFSET 4.983000 -0.000000 -0.000000
							CHANNELS 3 Zrotation Yrotation Xrotation
							JOINT LeftHand
							{
								OFFSET 3.483560 -0.000000 -0.000000
								CHANNELS 3 Zrotation Yrotation Xrotation
								JOINT LeftFingerBase
								{
									OFFSET 0.000000 0.000000 0.000000
									CHANNELS 3 Zrotation Yrotation Xrotation
									JOINT LeftHandIndex1
									{
										OFFSET 0.715260 -0.000000 -0.000000
										CHANNELS 3 Zrotation Yrotation Xrotation
										End Site
										{
											OFFSET 0.000000 0.000000 0.000000
										}
									}
								}
								JOINT LThumb
								{
									OFFSET 0.000000 0.000000 0.000000
									CHANNELS 3 Zrotation Yrotation Xrotation
									End Site
									{
										OFFSET 0.000000 0.000000 0.000000
									}
								}
							}
						}
					}
				}
				JOINT RightShoulder
				{
					OFFSET 0.000000 0.000000 0.000000
					CHANNELS 3 Zrotation Yrotation Xrotation
					JOINT RightArm
					{
						OFFSET -3.136600 1.374050 -0.404650
						CHANNELS 3 Zrotation Yrotation Xrotation
						JOINT RightForeArm
						{
							OFFSET -5.241900 -0.000000 -0.000000
							CHANNELS 3 Zrotation Yrotation Xrotation
							JOINT RightHand
							{
								OFFSET -3.444170 -0.000000 -0.000000
								CHANNELS 3 Zrotation Yrotation Xrotation
								JOINT RightFingerBase
								{
									OFFSET 0.000000 0.000000 0.000000
									CHANNELS 3 Zrotation Yrotation Xrotation
									JOINT RightHandIndex1
									{
										OFFSET -0.622530 -0.000000 -0.000000
										CHANNELS 3 Zrotation Yrotation Xrotation
										End Site
										{
											OFFSET 0.000000 0.000000 0.000000
										}
									}
								}
								JOINT RThumb
								{
									OFFSET 0.000000 0.000000 0.000000
									CHANNELS 3 Zrotation Yrotation Xrotation
									End Site
									{
										OFFSET 0.000000 0.000000 0.000000
									}
								}
							}
						}
					}
				}
			}
		}
	}
}
MOTION
Frames: 9
Frame Time: 0.008333
-37.544643 17.547092 -5.908301 -94.703863 87.276711 -98.337702 6.853490 1.155471 -2.640722 -23.644002 9.607991 8.802022 1.254067 5.006073 15.621989 0.154831 -1.307588 -2.748427 0.205600 -2.919400 -8.054500 -6.530694 -1.159859 -1.023943 30.437979 1.800230 0.173625 -3.603648 -10.847851 32.766737 -0.471687 -1.465978 -14.066901 -0.000200 -0.084100 0.231200 2.096479 -0.887801 0.716485 1.249683 -0.942670 -0.605814 -2.514608 -0.487157 3.360272 -1.748153 -0.830147 -7.927478 6.819526 -1.689447 9.617139 0.503400 -0.431800 4.778600 -4.510725 -4.769782 0.854557 -82.256870 -0.187834 14.401744 7.248480 -15.892136 -1.768172 -0.945653 -0.236197 -10.950444 19.425245 20.499325 7.394600 -7.125000 0.000000 0.000000 -8.228900 51.467600 -1.318300 6.151731 4.798583 0.599925 81.392676 -3.062100 19.634220 -10.055271 20.365993 -2.336943 0.531369 -0.483664 5.002461 -19.488737 -8.555138 2.933100 7.125000 0.000000 0.000000 5.852200 -38.497400 0.941100 
-37.522530 17.608180 -5.911128 -94.210273 87.185157 -97.903355 6.834444 1.154569 -2.626451 -23.475899 9.596413 8.673615 1.282103 5.093418 15.874817 0.097200 -0.856127 -1.766862 0.236700 -3.131100 -8.644000 -6.515734 -1.164487 -1.040767 30.334207 1.483725 0.217782 -3.562364 -10.777548 32.545839 -0.330379 -1.827645 -12.675604 -0.001000 0.200200 -0.550000 2.231645 -0.889472 0.669609 1.255632 -0.949273 -0.599688 -2.564994 -0.490364 3.409517 -1.739867 -0.859825 -7.926715 6.849263 -1.721086 10.013302 0.467700 -0.419200 4.481400 -4.516197 -4.749820 0.846143 -82.229712 -0.322213 14.132826 7.114995 -15.707471 -1.737254 -0.949346 -0.234600 -10.713333 19.416950 20.573005 7.418100 -7.125000 0.000000 0.000000 -8.258700 51.543700 -1.338700 6.149955 4.808423 0.594888 81.411986 -2.993562 19.427646 -9.939236 20.223561 -2.301484 0.525254 -0.483441 5.249932 -19.355998 -8.446199 2.873600 7.125000 0.000000 0.000000 5.955600 -38.376200 0.975600 
-37.500619 17.670479 -5.913450 -91.901636 87.049913 -95.614658 6.811217 1.145930 -2.619163 -23.303740 9.488025 8.665170 1.295774 5.111511 15.934632 0.020310 -0.114318 -0.795707 0.316500 -3.616400 -9.999900 -6.510081 -1.170658 -1.042238 30.328241 1.369272 0.189806 -3.541754 -10.747682 32.440968 -0.229250 -2.043732 -11.493011 -0.000300 0.106100 -0.291500 2.393646 -0.873912 0.591269 1.275556 -0.939388 -0.600386 -2.565691 -0.485886 3.456739 -1.788505 -0.854167 -8.009604 6.856258 -1.698603 10.182503 0.485300 -0.399100 4.574600 -4.513441 -4.741579 0.839478 -82.257944 -0.374754 13.936619 7.059419 -15.623480 -1.719471 -0.945802 -0.226564 -10.603451 19.372866 20.385260 7.333600 -7.125000 0.000000 0.000000 -8.244400 51.338000 -1.294500 6.154290 4.811834 0.592349 81.376153 -2.970699 19.472444 -9.904661 20.184909 -2.293040 0.526157 -0.484597 5.187663 -19.457650 -8.427175 2.882000 7.125000 0.000000 0.000000 5.865500 -38.361100 0.962900 
-37.487190 17.728840 -5.912945 -90.505232 86.995798 -94.162911 6.795117 1.149962 -2.597457 -23.177721 9.447286 8.426859 1.304158 5.132354 15.985216 -0.035976 0.441927 0.431781 0.334200 -3.715200 -10.276900 -6.501877 -1.178943 -1.034524 30.235424 1.282960 -0.007256 -3.525015 -10.724205 32.347526 -0.111581 -2.451856 -10.228558 -0.000200 0.085000 -0.233500 2.448729 -0.843897 0.528307 1.277707 -0.903925 -0.634717 -2.586492 -0.470889 3.379490 -1.707878 -0.833091 -7.994605 6.817113 -1.673002 10.283189 0.452300 -0.378300 4.621000 -4.505258 -4.745395 0.832548 -82.213440 -0.352899 13.674171 6.958629 -15.471332 -1.676539 -0.929162 -0.205566 -10.543304 19.116653 19.591339 6.955200 -7.125000 0.000000 0.000000 -8.259800 50.464100 -1.118900 6.153587 4.823185 0.583468 81.410732 -3.022624 19.386485 -9.872238 20.140911 -2.280673 0.523534 -0.482641 5.342949 -19.287997 -8.418107 2.853600 7.125000 0.000000 0.000000 6.011100 -38.344000 0.989600 
-37.470227 17.788917 -5.912945 -88.533988 86.930123 -92.163106 6.776085 1.148379 -2.583231 -23.052789 9.394043 8.311303 1.307382 5.126970 15.963142 -0.095544 1.128835 1.562112 0.347800 -3.789300 -10.484600 -6.494575 -1.185524 -1.027674 30.168533 1.241782 -0.149804 -3.515127 -10.710756 32.288167 -0.003267 -2.892735 -9.027559 -0.000100 0.050500 -0.138800 2.513294 -0.812936 0.454895 1.284525 -0.868484 -0.655225 -2.590516 -0.455737 3.358379 -1.656250 -0.807816 -8.044947 6.783454 -1.635606 10.412869 0.428200 -0.350800 4.692400 -4.498098 -4.743753 0.825160 -82.191926 -0.351058 13.492409 6.897061 -15.377862 -1.650359 -0.918212 -0.192843 -10.513212 18.944763 19.099442 6.719100 -7.125000 0.000000 0.000000 -8.287100 49.921400 -1.011600 6.156274 4.831955 0.576838 81.415136 -3.042468 19.357476 -9.847968 20.108439 -2.271567 0.521851 -0.481431 5.406166 -19.202028 -8.392022 2.831500 7.125000 0.000000 0.000000 6.082600 -38.312900 1.006100 
-37.454577 17.848894 -5.912137 -86.530097 86.896530 -90.104673 6.758179 1.148292 -2.568424 -22.965370 9.339470 8.200001 1.301956 5.092321 15.850644 -0.153509 1.880809 2.726684 0.340900 -3.751600 -10.379000 -6.487863 -1.191887 -1.016391 30.080788 1.262447 -0.345208 -3.514792 -10.712473 32.274118 0.099822 -3.393677 -7.889669 -0.000100 -0.048000 0.131900 2.527610 -0.780821 0.373560 1.288425 -0.829782 -0.680405 -2.578703 -0.440032 3.327596 -1.593950 -0.778005 -8.103589 6.744518 -1.592910 10.536216 0.398300 -0.320600 4.763700 -4.489503 -4.742765 0.816473 -82.166255 -0.318238 13.408908 6.878647 -15.346919 -1.636290 -0.907971 -0.184421 -10.583228 18.777078 18.682474 6.513500 -7.125000 0.000000 0.000000 -8.334500 49.459600 -0.922200 6.158880 4.841778 0.569423 81.416175 -3.072310 19.362550 -9.846032 20.102168 -2.268278 0.519788 -0.480252 5.430369 -19.115127 -8.342907 2.801100 7.125000 0.000000 0.000000 6.152100 -38.256800 1.026200 
-37.440037 17.908265 -5.911027 -84.555721 86.901172 -88.058856 6.742651 1.150564 -2.551868 -22.922858 9.283302 8.070032 1.294540 5.050567 15.711282 -0.207101 2.668358 3.882705 0.312600 -3.594300 -9.937900 -6.480227 -1.198042 -1.003718 29.957390 1.311644 -0.567457 -3.517239 -10.717461 32.268506 0.199626 -3.958204 -6.807795 -0.001100 -0.211000 0.579800 2.490528 -0.749661 0.292064 1.287665 -0.789617 -0.708351 -2.556587 -0.424405 3.287938 -1.530940 -0.753314 -8.160359 6.706108 -1.557716 10.651260 0.367400 -0.294400 4.831900 -4.481027 -4.742194 0.807043 -82.133869 -0.255081 13.449477 6.912567 -15.392455 -1.638465 -0.900835 -0.183265 -10.759684 18.634933 18.442587 6.380900 -7.125000 0.000000 0.000000 -8.407600 49.189300 -0.874200 6.160263 4.852061 0.561559 81.416531 -3.110032 19.401295 -9.870085 20.127672 -2.272230 0.518154 -0.478714 5.416734 -19.022519 -8.300277 2.772200 7.125000 0.000000 0.000000 6.227400 -38.207400 1.046500 
-37.426305 17.966727 -5.909916 -82.538302 86.934687 -85.959653 6.728469 1.153828 -2.535637 -22.916178 9.232030 7.951468 1.283298 4.994493 15.525455 -0.258676 3.504121 5.014921 0.277100 -3.385900 -9.355000 -6.471650 -1.204108 -0.990277 29.802171 1.376099 -0.815609 -3.524739 -10.729180 32.283509 0.295355 -4.569731 -5.790056 -0.004500 -0.435400 1.196500 2.416151 -0.722282 0.210751 1.283652 -0.752667 -0.735371 -2.525822 -0.410633 3.251218 -1.478967 -0.735784 -8.221755 6.672171 -1.531438 10.758128 0.340200 -0.273200 4.897800 -4.473532 -4.741122 0.797267 -82.099547 -0.169267 13.612017 7.001874 -15.517820 -1.658090 -0.897371 -0.189374 -11.036088 18.533825 18.396752 6.330600 -7.125000 0.000000 0.000000 -8.494400 49.129900 -0.870800 6.160763 4.861701 0.554126 81.409603 -3.145016 19.483668 -9.920969 20.186737 -2.283904 0.517281 -0.477109 5.352576 -18.946230 -8.266443 2.749000 7.125000 0.000000 0.000000 6.289400 -38.168000 1.063100 
-37.413583 18.023573 -5.909209 -80.855895 86.989696 -84.191968 6.714865 1.158845 -2.518996 -22.929243 9.189464 7.832377 1.270069 4.930520 15.311493 -0.306551 4.365238 6.125447 0.229500 -3.083700 -8.511800 -6.461603 -1.210302 -0.977906 29.616888 1.413297 -1.088498 -3.535389 -10.744359 32.309149 0.388791 -5.230386 -4.829071 -0.011200 -0.683600 1.878500 2.319755 -0.705445 0.138874 1.277325 -0.728129 -0.761243 -2.492462 -0.402806 3.212810 -1.444728 -0.726150 -8.276246 6.649169 -1.515117 10.848728 0.321300 -0.258200 4.955200 -4.467688 -4.740115 0.787728 -82.063894 -0.060754 13.898538 7.150322 -15.727769 -1.697252 -0.898371 -0.203592 -11.406126 18.484414 18.581073 6.377900 -7.125000 0.000000 0.000000 -8.594600 49.320000 -0.921700 6.159704 4.870495 0.547460 81.396695 -3.178387 19.597734 -9.995698 20.275915 -2.302917 0.516602 -0.475875 5.254978 -18.888456 -8.227382 2.726600 7.125000 0.000000 0.000000 6.334800 -38.123500 1.077800 
